# Blender v2.82 (sub 7) OBJ File: 'Dhao.blend'
# www.blender.org
mtllib simpleship.mtl
o Cube
v -2.601166 -0.878322 5.650150
v -2.543817 1.113858 5.573118
v -1.980642 -0.871612 -6.911052
v -1.890600 1.083107 -6.603845
v 2.601166 -0.878322 5.650150
v 2.543817 1.113858 5.573118
v 1.980642 -0.871612 -6.911052
v 1.890600 1.083107 -6.603844
v -0.000000 1.519620 -9.630081
v 0.000000 0.007283 -9.813254
v 0.000000 -0.067935 9.637351
v -0.000000 1.862923 9.459711
v -3.227032 0.017670 6.509471
v -2.454013 0.024645 -7.788085
v -3.265749 1.163884 6.578617
v -2.482910 1.128389 -7.861037
v 2.482910 1.128389 -7.861037
v 2.454013 0.024645 -7.788085
v 3.227032 0.017670 6.509471
v 3.265749 1.163884 6.578617
v -0.000000 1.705927 -11.472031
v -0.000000 0.995481 -11.343105
v -0.000000 0.947197 11.277131
v -0.000000 2.089733 11.408860
v -2.731706 1.575105 5.647727
v -2.134969 1.544009 -6.899247
v 2.134969 1.544009 -6.899247
v 2.731706 1.575105 5.647727
v -3.229006 1.707180 6.497981
v -2.473669 1.670833 -7.795377
v -0.000000 1.899567 -10.249432
v -0.000000 2.267941 9.817284
v 2.473669 1.670833 -7.795377
v 3.229005 1.707180 6.497981
v -0.000000 2.119606 -11.386128
v -0.000000 2.540699 11.268345
v -3.124022 -1.102505 -0.198655
v -3.105803 1.039965 -0.199774
v 3.124022 -1.102505 -0.198655
v 3.105803 1.039965 -0.199774
v -3.908684 1.139658 -0.215204
v -3.864755 -0.120536 -0.213018
v 3.864755 -0.120536 -0.213019
v 3.908684 1.139658 -0.215203
v -3.395244 1.513097 -0.211232
v 3.395244 1.513097 -0.211232
v -3.879306 1.640275 -0.225279
v 3.879306 1.640275 -0.225278
v -2.736738 1.040345 -3.165291
v 2.968491 -1.055042 -3.320502
v -3.717212 1.116973 -3.822053
v 3.674985 -0.103431 -3.781707
v -2.969482 1.510435 -3.342310
v -3.679791 1.613329 -3.795639
v -2.968491 -1.055042 -3.320501
v 2.736738 1.040345 -3.165291
v -3.674985 -0.103431 -3.781706
v 3.717212 1.116973 -3.822053
v 2.969482 1.510435 -3.342310
v 3.679791 1.613329 -3.795639
v -3.024587 -1.055098 2.847449
v 2.967205 1.040579 2.711168
v -3.741766 -0.103574 3.280746
v 3.784158 1.117317 3.316844
v 3.202081 1.510646 2.848874
v 3.746070 1.613599 3.271064
v -2.967205 1.040579 2.711168
v 3.024588 -1.055098 2.847449
v -3.784158 1.117317 3.316844
v 3.741766 -0.103574 3.280745
v -3.202081 1.510646 2.848874
v -3.746070 1.613599 3.271063
v 0.000000 -1.133530 -6.509161
v 0.000000 -1.133695 5.166537
v 0.000000 -1.345448 -0.197380
v 0.000000 -1.291873 -3.277414
v 0.000000 -1.291853 2.805619
v -3.024587 -1.055098 2.847449
v -0.000000 0.947197 11.277131
v -2.736738 1.040345 -3.165291
v -1.890600 1.083107 -6.603845
v 2.968491 -1.055042 -3.320502
v 2.967205 1.040579 2.711168
v 2.543817 1.113858 5.573118
v -0.000000 0.995481 -11.343105
v -0.000000 1.519620 -9.630081
v -0.000000 1.519620 -9.630081
v 1.890600 1.083107 -6.603844
v -2.543817 1.113858 5.573118
v -0.000000 1.862923 9.459711
v -0.000000 1.862923 9.459711
v -0.000000 1.705927 -11.472031
v -0.000000 2.089733 11.408860
v -0.000000 2.119606 -11.386128
v -0.000000 2.119606 -11.386128
v -0.000000 1.899567 -10.249432
v -0.000000 1.899567 -10.249432
v -2.969482 1.510435 -3.342310
v -2.134969 1.544009 -6.899247
v 3.202081 1.510646 2.848874
v 2.731706 1.575105 5.647727
v -3.679791 1.613329 -3.795639
v -2.473669 1.670833 -7.795377
v 2.134969 1.544009 -6.899247
v -2.731706 1.575105 5.647727
v -0.000000 2.267941 9.817284
v -0.000000 2.267941 9.817284
v 3.746070 1.613599 3.271064
v 3.229005 1.707180 6.497981
v 2.473669 1.670833 -7.795377
v -3.229006 1.707180 6.497981
v -0.000000 2.540699 11.268345
v -0.000000 2.540699 11.268345
v -2.968491 -1.055042 -3.320501
v -3.124022 -1.102505 -0.198655
v -2.967205 1.040579 2.711168
v -3.105803 1.039965 -0.199774
v 3.024588 -1.055098 2.847449
v 3.124022 -1.102505 -0.198655
v 2.736738 1.040345 -3.165291
v 3.105803 1.039965 -0.199774
v -3.202081 1.510646 2.848874
v -3.395244 1.513097 -0.211232
v 2.969482 1.510435 -3.342310
v 3.395244 1.513097 -0.211232
v -3.746070 1.613599 3.271063
v -3.879306 1.640275 -0.225279
v 3.679791 1.613329 -3.795639
v 3.879306 1.640275 -0.225278
vt 0.375000 0.500000
vt 0.125000 0.500000
vt 0.125000 0.500000
vt 0.375000 0.500000
vt 0.875000 0.562500
vt 0.875000 0.500000
vt 0.875000 0.500000
vt 0.875000 0.562500
vt 0.375000 0.562500
vt 0.375000 0.500000
vt 0.375000 0.500000
vt 0.375000 0.562500
vt 0.125000 0.750000
vt 0.250000 0.750000
vt 0.375000 0.750000
vt 0.125000 0.750000
vt 0.250000 0.687500
vt 0.375000 0.687500
vt 0.625000 0.687500
vt 0.875000 0.687500
vt 0.875000 0.750000
vt 0.625000 0.750000
vt 0.375000 0.187500
vt 0.625000 0.187500
vt 0.625000 0.250000
vt 0.375000 0.250000
vt 0.250000 0.500000
vt 0.875000 0.500000
vt 0.625000 0.500000
vt 0.875000 0.500000
vt 0.375000 0.750000
vt 0.125000 0.750000
vt 0.625000 0.750000
vt 0.375000 0.500000
vt 0.125000 0.687500
vt 0.125000 0.750000
vt 0.125000 0.687500
vt 0.625000 0.500000
vt 0.625000 0.500000
vt 0.375000 0.687500
vt 0.625000 0.687500
vt 0.625000 0.750000
vt 0.625000 0.250000
vt 0.375000 0.250000
vt 0.625000 0.750000
vt 0.375000 0.750000
vt 0.625000 0.000000
vt 0.375000 0.000000
vt 0.375000 0.000000
vt 0.625000 0.000000
vt 0.625000 0.750000
vt 0.625000 0.750000
vt 0.125000 0.750000
vt 0.625000 0.687500
vt 0.625000 0.750000
vt 0.625000 0.750000
vt 0.625000 0.687500
vt 0.625000 0.500000
vt 0.625000 0.500000
vt 0.625000 0.562500
vt 0.625000 0.562500
vt 0.875000 0.500000
vt 0.625000 0.500000
vt 0.625000 0.500000
vt 0.875000 0.500000
vt 0.875000 0.500000
vt 0.625000 0.500000
vt 0.625000 0.500000
vt 0.875000 0.500000
vt 0.625000 0.687500
vt 0.625000 0.750000
vt 0.625000 0.750000
vt 0.625000 0.687500
vt 0.875000 0.562500
vt 0.875000 0.500000
vt 0.875000 0.500000
vt 0.875000 0.562500
vt 0.625000 0.750000
vt 0.625000 0.750000
vt 0.875000 0.750000
vt 0.875000 0.750000
vt 0.875000 0.500000
vt 0.875000 0.500000
vt 0.625000 0.750000
vt 0.625000 0.750000
vt 0.625000 0.250000
vt 0.625000 0.250000
vt 0.625000 0.750000
vt 0.875000 0.750000
vt 0.875000 0.750000
vt 0.625000 0.750000
vt 0.625000 0.062500
vt 0.625000 0.000000
vt 0.625000 0.062500
vt 0.625000 0.000000
vt 0.625000 0.125000
vt 0.625000 0.125000
vt 0.625000 0.187500
vt 0.875000 0.687500
vt 0.875000 0.625000
vt 0.875000 0.625000
vt 0.875000 0.687500
vt 0.625000 0.562500
vt 0.625000 0.625000
vt 0.625000 0.625000
vt 0.625000 0.562500
vt 0.625000 0.625000
vt 0.625000 0.625000
vt 0.625000 0.687500
vt 0.625000 0.562500
vt 0.625000 0.625000
vt 0.625000 0.625000
vt 0.625000 0.562500
vt 0.375000 0.625000
vt 0.125000 0.562500
vt 0.125000 0.625000
vt 0.125000 0.625000
vt 0.125000 0.562500
vt 0.375000 0.062500
vt 0.375000 0.125000
vt 0.625000 0.562500
vt 0.875000 0.562500
vt 0.875000 0.625000
vt 0.625000 0.625000
vt 0.250000 0.562500
vt 0.375000 0.562500
vt 0.375000 0.625000
vt 0.250000 0.625000
vt 0.375000 0.687500
vt 0.375000 0.625000
vt 0.875000 0.687500
vt 0.875000 0.625000
vt 0.875000 0.625000
vt 0.875000 0.687500
vt 0.125000 0.625000
vt 0.125000 0.687500
vt 0.125000 0.562500
vn 0.0000 -0.8579 -0.5137
vn -0.3883 -0.8793 -0.2756
vn -0.7756 -0.4316 -0.4605
vn -0.7599 -0.2632 -0.5943
vn 0.8462 0.5109 0.1510
vn 0.7454 0.5913 0.3077
vn 0.6928 0.6226 0.3638
vn 0.8409 0.5153 0.1654
vn 0.7722 -0.6228 -0.1259
vn 0.3883 -0.8793 -0.2756
vn 0.7756 -0.4316 -0.4605
vn 0.9215 -0.3467 -0.1748
vn -0.4093 -0.8848 0.2225
vn 0.0000 -0.9898 0.1420
vn 0.4093 -0.8848 0.2225
vn 0.0000 -0.8853 0.4650
vn 0.0000 -0.9990 0.0443
vn 0.0790 -0.9959 0.0432
vn 0.0000 0.9999 -0.0121
vn 0.0000 0.9963 -0.0861
vn -0.9215 -0.3467 -0.1748
vn -0.9842 0.0141 -0.1763
vn -0.8971 0.0076 -0.4417
vn 0.0000 -0.9840 -0.1782
vn 0.0000 0.9982 0.0594
vn 0.0000 0.9897 0.1427
vn 0.8207 -0.4191 0.3882
vn 0.7734 -0.2676 0.5746
vn 0.0000 0.9819 -0.1892
vn 0.7599 -0.2632 -0.5943
vn -0.7775 -0.6239 0.0791
vn -0.8207 -0.4191 0.3882
vn -0.9301 -0.3522 0.1040
vn 0.8971 0.0076 -0.4417
vn 0.8234 0.0168 -0.5672
vn 0.9301 -0.3522 0.1040
vn 0.9949 0.0206 0.0988
vn 0.9267 0.0300 0.3745
vn -0.8234 0.0168 -0.5672
vn 0.8313 0.0493 0.5536
vn -0.9267 0.0300 0.3745
vn -0.7734 -0.2676 0.5746
vn -0.8313 0.0493 0.5536
vn 0.9288 0.1219 0.3499
vn 0.8314 0.1497 0.5350
vn -0.8788 0.4681 -0.0923
vn -0.8268 0.4435 -0.3458
vn -0.8177 0.4431 -0.3674
vn -0.8811 0.4607 -0.1066
vn 0.8263 0.0960 -0.5550
vn 0.9021 0.0828 -0.4234
vn 0.9842 0.0141 -0.1763
vn 0.9829 0.0685 -0.1706
vn -0.5900 0.6668 0.4553
vn -0.7454 0.5913 0.3077
vn -0.6928 0.6226 0.3638
vn 0.0000 0.9875 0.1576
vn -0.1269 0.9886 0.0804
vn -0.0847 0.9875 0.1330
vn -0.1971 0.9801 -0.0216
vn -0.1119 0.9897 -0.0895
vn -0.0450 0.9888 -0.1419
vn -0.1772 0.9835 -0.0375
vn 0.1709 0.9849 0.0279
vn 0.1269 0.9886 0.0804
vn 0.0847 0.9875 0.1330
vn 0.1620 0.9861 0.0378
vn 0.0000 0.9851 -0.1720
vn 0.1119 0.9897 -0.0895
vn 0.0450 0.9888 -0.1419
vn 0.5900 0.6668 0.4553
vn -0.7186 0.4289 -0.5473
vn -0.9021 0.0828 -0.4234
vn -0.8263 0.0960 -0.5550
vn 0.7186 0.4289 -0.5473
vn 0.8268 0.4435 -0.3458
vn 0.8177 0.4431 -0.3674
vn -0.9949 0.0206 0.0988
vn -0.9288 0.1219 0.3499
vn -0.9924 0.0793 0.0935
vn -0.8314 0.1497 0.5350
vn -0.9998 0.0168 -0.0086
vn -0.9976 0.0686 -0.0094
vn -0.9829 0.0685 -0.1706
vn 0.1971 0.9801 -0.0216
vn 0.2001 0.9797 0.0032
vn 0.2000 0.9798 0.0033
vn 0.1772 0.9835 -0.0375
vn -0.1709 0.9849 0.0279
vn -0.2001 0.9797 0.0032
vn -0.2000 0.9798 0.0033
vn -0.1620 0.9861 0.0378
vn 0.9998 0.0168 -0.0086
vn 0.9976 0.0686 -0.0094
vn 0.9924 0.0793 0.0935
vn -0.8462 0.5109 0.1510
vn -0.8678 0.4959 0.0319
vn -0.8678 0.4959 0.0320
vn -0.8409 0.5153 0.1654
vn 0.9422 -0.3350 -0.0084
vn -0.7722 -0.6228 -0.1259
vn -0.7950 -0.6066 -0.0067
vn -0.9422 -0.3350 -0.0084
vn 0.0000 1.0000 0.0055
vn 0.0000 1.0000 -0.0000
vn 0.0000 -0.9991 -0.0407
vn 0.0856 -0.9956 -0.0386
vn 0.0780 -0.9969 -0.0000
vn 0.0000 -1.0000 -0.0001
vn 0.7775 -0.6239 0.0791
vn 0.7950 -0.6066 -0.0067
vn 0.8788 0.4681 -0.0923
vn 0.8678 0.4959 0.0319
vn 0.8678 0.4959 0.0320
vn 0.8811 0.4607 -0.1066
vn -0.0780 -0.9969 -0.0000
vn -0.0790 -0.9959 0.0432
vn -0.0856 -0.9956 -0.0386
usemtl None
s 1
f 10/1/1 3/2/2 14/3/3 85/4/4
f 80/5/5 81/6/6 99/7/7 98/8/8
f 82/9/9 7/10/10 18/11/11 52/12/12
f 1/13/13 74/14/14 5/15/15 11/16/16
f 77/17/17 68/18/18 5/15/15 74/14/14
f 83/19/19 67/20/19 89/21/20 84/22/20
f 57/23/21 51/24/22 16/25/23 14/26/3
f 7/10/10 73/27/24 3/2/2 10/1/1
f 4/28/25 88/29/25 86/30/26
f 11/16/16 5/15/15 19/31/27 79/32/28
f 84/22/20 89/21/20 90/33/29
f 7/10/10 10/1/1 22/34/30 18/11/11
f 78/35/31 1/13/13 13/36/32 63/37/33
f 17/38/34 18/11/11 22/34/30 92/39/35
f 70/40/36 64/41/37 20/42/38 19/31/27
f 14/26/3 16/25/23 21/43/39 85/44/4
f 19/31/27 20/42/38 93/45/40 79/46/28
f 15/47/41 13/48/32 23/49/42 24/50/43
f 93/45/40 20/42/38 109/51/44 113/52/45
f 1/13/13 11/16/16 23/53/42 13/36/32
f 62/54/46 6/55/47 101/56/48 100/57/49
f 17/38/34 92/39/35 94/58/50 110/59/51
f 58/60/52 17/38/34 110/59/51 60/61/53
f 87/62/54 8/63/55 104/64/56 96/65/54
f 97/66/57 27/67/58 33/68/59 95/69/57
f 65/70/60 28/71/61 34/72/62 108/73/63
f 53/74/64 26/75/65 103/76/66 102/77/67
f 26/75/65 97/66/57 95/69/57 103/76/66
f 28/71/61 106/78/68 112/79/68 34/72/62
f 106/78/68 105/80/69 111/81/70 112/79/68
f 81/6/6 9/82/71 31/83/71 99/7/7
f 6/55/47 91/84/72 107/85/72 101/56/48
f 21/43/39 16/25/23 30/86/73 35/87/74
f 12/88/75 2/89/76 25/90/77 32/91/75
f 69/92/78 15/47/41 29/93/79 72/94/80
f 15/47/41 24/50/43 36/95/81 29/93/79
f 51/24/22 41/96/82 47/97/83 54/98/84
f 122/99/85 123/100/86 127/101/87 126/102/88
f 124/103/89 125/104/90 129/105/91 128/106/92
f 64/41/37 44/107/93 48/108/94 66/109/95
f 120/110/96 121/111/97 46/112/98 59/113/99
f 52/12/12 58/60/52 44/107/93 43/114/100
f 114/115/101 115/116/102 42/117/103 57/118/21
f 63/119/33 69/92/78 41/96/82 42/120/103
f 56/121/104 49/122/104 38/123/105 40/124/105
f 76/125/106 50/126/107 39/127/108 75/128/109
f 118/129/110 119/130/111 43/114/100 70/40/36
f 116/131/112 117/132/113 45/133/114 71/134/115
f 73/27/24 7/10/10 50/126/107 76/125/106
f 88/29/25 4/28/25 49/122/104 56/121/104
f 3/2/2 114/115/101 57/118/21 14/3/3
f 18/11/11 17/38/34 58/60/52 52/12/12
f 8/63/55 120/110/96 59/113/99 104/64/56
f 27/67/58 124/103/89 128/106/92 33/68/59
f 16/25/23 51/24/22 54/98/84 30/86/73
f 123/100/86 53/74/64 102/77/67 127/101/87
f 44/107/93 58/60/52 60/61/53 48/108/94
f 42/120/103 41/96/82 51/24/22 57/23/21
f 119/130/111 82/9/9 52/12/12 43/114/100
f 117/132/113 80/5/5 98/8/8 45/133/114
f 2/89/76 116/131/112 71/134/115 25/90/77
f 5/15/15 118/129/110 70/40/36 19/31/27
f 13/48/32 15/47/41 69/92/78 63/119/33
f 20/42/38 64/41/37 66/109/95 109/51/44
f 105/80/69 122/99/85 126/102/88 111/81/70
f 41/96/82 69/92/78 72/94/80 47/97/83
f 125/104/90 65/70/60 108/73/63 129/105/91
f 121/111/97 62/54/46 100/57/49 46/112/98
f 43/114/100 44/107/93 64/41/37 70/40/36
f 115/116/102 78/35/31 63/37/33 42/117/103
f 40/124/105 38/123/105 67/20/19 83/19/19
f 75/128/109 39/127/108 68/18/18 77/17/17
f 37/135/116 75/128/109 77/17/17 61/136/117
f 3/2/2 73/27/24 76/125/106 55/137/118
f 55/137/118 76/125/106 75/128/109 37/135/116
f 61/136/117 77/17/17 74/14/14 1/13/13
